<svg xmlns="http://www.w3.org/2000/svg" viewBox="0 0 290 54" width="290" height="54">
  <!-- infinity glow -->
  <path d="M 44,27 C 38,14 22,14 22,27 C 22,40 38,40 44,27 C 50,40 66,40 66,27 C 66,14 50,14 44,27"
        fill="none" stroke="#e5ff9c" stroke-width="9" stroke-linecap="round" opacity="0.07"/>
  <!-- infinity stroke -->
  <path d="M 44,27 C 38,14 22,14 22,27 C 22,40 38,40 44,27 C 50,40 66,40 66,27 C 66,14 50,14 44,27"
        fill="none" stroke="#e5ff9c" stroke-width="2.2" stroke-linecap="round"/>
  <!-- crossover node -->
  <circle cx="44" cy="27" r="2.2" fill="#e5ff9c"/>
  <!-- separator -->
  <line x1="84" y1="12" x2="84" y2="42" stroke="#4d6717" stroke-width="1" opacity="0.7"/>
  <!-- wordmark -->
  <text x="98" y="26" font-family="Georgia, 'Times New Roman', serif" font-size="20" font-weight="700"
        fill="#f2ffcd" dominant-baseline="middle" letter-spacing="1">SIMONSKY</text>
  <text x="99" y="41" font-family="'Helvetica Neue', Arial, sans-serif" font-size="7.5" font-weight="500"
        fill="#e5ff9c" dominant-baseline="middle" letter-spacing="4" opacity="0.6">SOLUTIONS</text>
</svg>
